<mxfile host="Electron" agent="Mozilla/5.0 (Windows NT 10.0; Win64; x64) AppleWebKit/537.36 (KHTML, like Gecko) draw.io/28.2.8 Chrome/140.0.7339.240 Electron/38.4.0 Safari/537.36" version="28.2.8">
  <diagram name="Pagina-1" id="CG4ZzxZrTlugZuardbCy">
    <mxGraphModel dx="320" dy="574" grid="1" gridSize="10" guides="1" tooltips="1" connect="1" arrows="1" fold="1" page="1" pageScale="1" pageWidth="827" pageHeight="1169" math="0" shadow="0">
      <root>
        <mxCell id="0" />
        <mxCell id="1" parent="0" />
        <mxCell id="ak7aDWYMryEAt3wSf5lU-1" value="Locatie" style="swimlane;fontStyle=1;childLayout=stackLayout;horizontal=1;startSize=26;horizontalStack=0;resizeParent=1;resizeParentMax=0;resizeLast=0;collapsible=1;marginBottom=0;align=center;fontSize=14;strokeColor=#666666;fillColor=#f5f5f5;fontColor=#333333;" vertex="1" parent="1">
          <mxGeometry x="80" y="40" width="160" height="100" as="geometry" />
        </mxCell>
        <mxCell id="ak7aDWYMryEAt3wSf5lU-2" value="&lt;u&gt;naam&lt;/u&gt;&lt;div&gt;adres&lt;/div&gt;&lt;div&gt;telefoonnummer&lt;/div&gt;&lt;div&gt;maximumcapaciteit&lt;/div&gt;" style="text;strokeColor=none;fillColor=none;spacingLeft=4;spacingRight=4;overflow=hidden;rotatable=0;points=[[0,0.5],[1,0.5]];portConstraint=eastwest;fontSize=12;html=1;" vertex="1" parent="ak7aDWYMryEAt3wSf5lU-1">
          <mxGeometry y="26" width="160" height="74" as="geometry" />
        </mxCell>
        <mxCell id="ak7aDWYMryEAt3wSf5lU-5" value="Artiest" style="swimlane;fontStyle=1;childLayout=stackLayout;horizontal=1;startSize=26;horizontalStack=0;resizeParent=1;resizeParentMax=0;resizeLast=0;collapsible=1;marginBottom=0;align=center;fontSize=14;strokeColor=#666666;fillColor=#f5f5f5;fontColor=#333333;html=1;" vertex="1" parent="1">
          <mxGeometry x="80" y="470" width="160" height="110" as="geometry" />
        </mxCell>
        <mxCell id="ak7aDWYMryEAt3wSf5lU-6" value="&lt;u&gt;code&lt;/u&gt;&lt;div&gt;naam&lt;/div&gt;&lt;div&gt;nationaliteit&lt;/div&gt;&lt;div&gt;prijs per uur&lt;/div&gt;&lt;div&gt;omschrijving&lt;/div&gt;" style="text;strokeColor=none;fillColor=none;spacingLeft=4;spacingRight=4;overflow=hidden;rotatable=0;points=[[0,0.5],[1,0.5]];portConstraint=eastwest;fontSize=12;html=1;" vertex="1" parent="ak7aDWYMryEAt3wSf5lU-5">
          <mxGeometry y="26" width="160" height="84" as="geometry" />
        </mxCell>
        <mxCell id="ak7aDWYMryEAt3wSf5lU-7" value="Prijscategorie" style="swimlane;fontStyle=1;childLayout=stackLayout;horizontal=1;startSize=26;horizontalStack=0;resizeParent=1;resizeParentMax=0;resizeLast=0;collapsible=1;marginBottom=0;align=center;fontSize=14;strokeColor=#666666;fillColor=#f5f5f5;fontColor=#333333;" vertex="1" parent="1">
          <mxGeometry x="440" y="250" width="160" height="90" as="geometry" />
        </mxCell>
        <mxCell id="ak7aDWYMryEAt3wSf5lU-8" value="&lt;u&gt;code&lt;/u&gt;&lt;div&gt;naam&lt;/div&gt;&lt;div&gt;prijs&lt;/div&gt;" style="text;strokeColor=none;fillColor=none;spacingLeft=4;spacingRight=4;overflow=hidden;rotatable=0;points=[[0,0.5],[1,0.5]];portConstraint=eastwest;fontSize=12;html=1;" vertex="1" parent="ak7aDWYMryEAt3wSf5lU-7">
          <mxGeometry y="26" width="160" height="64" as="geometry" />
        </mxCell>
        <mxCell id="ak7aDWYMryEAt3wSf5lU-11" value="Concert" style="swimlane;fontStyle=1;childLayout=stackLayout;horizontal=1;startSize=26;horizontalStack=0;resizeParent=1;resizeParentMax=0;resizeLast=0;collapsible=1;marginBottom=0;align=center;fontSize=14;strokeColor=#666666;fillColor=#f5f5f5;fontColor=#333333;html=1;" vertex="1" parent="1">
          <mxGeometry x="80" y="240" width="160" height="110" as="geometry" />
        </mxCell>
        <mxCell id="ak7aDWYMryEAt3wSf5lU-12" value="&lt;u&gt;naam&lt;/u&gt;&lt;div&gt;datum&lt;/div&gt;&lt;div&gt;beginuur&lt;/div&gt;&lt;div&gt;einduur&lt;/div&gt;&lt;div&gt;locatie&lt;/div&gt;" style="text;strokeColor=none;fillColor=none;spacingLeft=4;spacingRight=4;overflow=hidden;rotatable=0;points=[[0,0.5],[1,0.5]];portConstraint=eastwest;fontSize=12;html=1;" vertex="1" parent="ak7aDWYMryEAt3wSf5lU-11">
          <mxGeometry y="26" width="160" height="84" as="geometry" />
        </mxCell>
        <mxCell id="ak7aDWYMryEAt3wSf5lU-13" value="" style="endArrow=none;html=1;rounded=0;exitX=1;exitY=0.5;exitDx=0;exitDy=0;entryX=0;entryY=0.5;entryDx=0;entryDy=0;" edge="1" parent="1" source="ak7aDWYMryEAt3wSf5lU-12" target="ak7aDWYMryEAt3wSf5lU-8">
          <mxGeometry width="50" height="50" relative="1" as="geometry">
            <mxPoint x="460" y="330" as="sourcePoint" />
            <mxPoint x="510" y="280" as="targetPoint" />
          </mxGeometry>
        </mxCell>
        <mxCell id="ak7aDWYMryEAt3wSf5lU-14" value="" style="endArrow=none;html=1;rounded=0;exitX=0.5;exitY=0;exitDx=0;exitDy=0;entryX=0.497;entryY=0.998;entryDx=0;entryDy=0;entryPerimeter=0;" edge="1" parent="1" source="ak7aDWYMryEAt3wSf5lU-11" target="ak7aDWYMryEAt3wSf5lU-2">
          <mxGeometry width="50" height="50" relative="1" as="geometry">
            <mxPoint x="460" y="330" as="sourcePoint" />
            <mxPoint x="160" y="140" as="targetPoint" />
          </mxGeometry>
        </mxCell>
        <mxCell id="ak7aDWYMryEAt3wSf5lU-15" value="" style="endArrow=none;html=1;rounded=0;exitX=0.497;exitY=0.998;exitDx=0;exitDy=0;exitPerimeter=0;entryX=0.5;entryY=0;entryDx=0;entryDy=0;" edge="1" parent="1" source="ak7aDWYMryEAt3wSf5lU-12" target="ak7aDWYMryEAt3wSf5lU-5">
          <mxGeometry width="50" height="50" relative="1" as="geometry">
            <mxPoint x="460" y="330" as="sourcePoint" />
            <mxPoint x="510" y="280" as="targetPoint" />
          </mxGeometry>
        </mxCell>
        <mxCell id="ak7aDWYMryEAt3wSf5lU-16" value="&amp;lt; isBeschikbaarVoor" style="text;html=1;whiteSpace=wrap;strokeColor=none;fillColor=none;align=center;verticalAlign=middle;rounded=0;" vertex="1" parent="1">
          <mxGeometry x="280" y="280" width="120" height="30" as="geometry" />
        </mxCell>
        <mxCell id="ak7aDWYMryEAt3wSf5lU-17" value="^ vindtPlaatsOp" style="text;html=1;whiteSpace=wrap;strokeColor=none;fillColor=none;align=center;verticalAlign=middle;rounded=0;" vertex="1" parent="1">
          <mxGeometry x="140" y="170" width="130" height="30" as="geometry" />
        </mxCell>
        <mxCell id="ak7aDWYMryEAt3wSf5lU-18" value="^ spelen" style="text;html=1;whiteSpace=wrap;strokeColor=none;fillColor=none;align=center;verticalAlign=middle;rounded=0;" vertex="1" parent="1">
          <mxGeometry x="160" y="390" width="60" height="30" as="geometry" />
        </mxCell>
        <mxCell id="ak7aDWYMryEAt3wSf5lU-20" value="?..?" style="text;html=1;whiteSpace=wrap;strokeColor=none;fillColor=none;align=center;verticalAlign=middle;rounded=0;" vertex="1" parent="1">
          <mxGeometry x="150" y="140" width="60" height="30" as="geometry" />
        </mxCell>
        <mxCell id="ak7aDWYMryEAt3wSf5lU-21" value="0..?" style="text;html=1;whiteSpace=wrap;strokeColor=none;fillColor=none;align=center;verticalAlign=middle;rounded=0;" vertex="1" parent="1">
          <mxGeometry x="110" y="210" width="60" height="30" as="geometry" />
        </mxCell>
        <mxCell id="ak7aDWYMryEAt3wSf5lU-22" value="1..N" style="text;html=1;whiteSpace=wrap;strokeColor=none;fillColor=none;align=center;verticalAlign=middle;rounded=0;" vertex="1" parent="1">
          <mxGeometry x="390" y="280" width="60" height="30" as="geometry" />
        </mxCell>
        <mxCell id="ak7aDWYMryEAt3wSf5lU-23" value="0..N" style="text;html=1;whiteSpace=wrap;strokeColor=none;fillColor=none;align=center;verticalAlign=middle;rounded=0;" vertex="1" parent="1">
          <mxGeometry x="230" y="280" width="60" height="30" as="geometry" />
        </mxCell>
        <mxCell id="ak7aDWYMryEAt3wSf5lU-24" value="0..N" style="text;html=1;whiteSpace=wrap;strokeColor=none;fillColor=none;align=center;verticalAlign=middle;rounded=0;" vertex="1" parent="1">
          <mxGeometry x="150" y="350" width="60" height="30" as="geometry" />
        </mxCell>
        <mxCell id="ak7aDWYMryEAt3wSf5lU-26" value="1..N" style="text;html=1;whiteSpace=wrap;strokeColor=none;fillColor=none;align=center;verticalAlign=middle;rounded=0;" vertex="1" parent="1">
          <mxGeometry x="110" y="450" width="60" height="30" as="geometry" />
        </mxCell>
      </root>
    </mxGraphModel>
  </diagram>
</mxfile>
